<svg width="40" height="40" viewBox="0 0 40 40" fill="none" xmlns="http://www.w3.org/2000/svg">
<path d="M17.8853 33.8853C17.3853 34.3853 16.7071 34.6661 16 34.6661C15.2929 34.6661 14.6147 34.3853 14.1147 33.8853L2.11467 21.8853C1.61475 21.3853 1.33391 20.7071 1.33391 20C1.33391 19.2929 1.61475 18.6147 2.11467 18.1147L14.1147 6.11467C14.6176 5.62891 15.2912 5.36013 15.9904 5.36621C16.6896 5.37228 17.3584 5.65273 17.8529 6.14715C18.3473 6.64157 18.6277 7.31041 18.6338 8.0096C18.6399 8.70879 18.3711 9.3824 17.8853 9.88533L10.6667 17.3333L36 17.3333C36.7072 17.3333 37.3855 17.6143 37.8856 18.1144C38.3857 18.6145 38.6667 19.2928 38.6667 20C38.6667 20.7072 38.3857 21.3855 37.8856 21.8856C37.3855 22.3857 36.7072 22.6667 36 22.6667L10.6667 22.6667L17.8853 30.1147C18.3853 30.6147 18.6661 31.2929 18.6661 32C18.6661 32.7071 18.3853 33.3853 17.8853 33.8853Z" fill="#F8F8F8"/>
</svg>
