<svg width="40" height="40" viewBox="0 0 40 40" fill="none" xmlns="http://www.w3.org/2000/svg">
<path d="M22.1147 6.11467C22.6148 5.61475 23.2929 5.3339 24 5.3339C24.7071 5.3339 25.3853 5.61475 25.8853 6.11467L37.8853 18.1147C38.3853 18.6147 38.6661 19.2929 38.6661 20C38.6661 20.7071 38.3853 21.3853 37.8853 21.8853L25.8853 33.8853C25.3824 34.3711 24.7088 34.6399 24.0096 34.6338C23.3104 34.6277 22.6416 34.3473 22.1472 33.8529C21.6527 33.3584 21.3723 32.6896 21.3662 31.9904C21.3601 31.2912 21.6289 30.6176 22.1147 30.1147L29.3333 22.6667H4.00001C3.29277 22.6667 2.61449 22.3857 2.11439 21.8856C1.6143 21.3855 1.33334 20.7072 1.33334 20C1.33334 19.2928 1.6143 18.6145 2.11439 18.1144C2.61449 17.6143 3.29277 17.3333 4.00001 17.3333H29.3333L22.1147 9.88533C21.6148 9.38526 21.3339 8.70711 21.3339 8C21.3339 7.2929 21.6148 6.61474 22.1147 6.11467Z" fill="#F8F8F8"/>
</svg>
